<?xml version="1.0" encoding="iso-8859-1"?>
<!-- Generator: Adobe Illustrator 16.0.0, SVG Export Plug-In . SVG Version: 6.00 Build 0)  -->
<!DOCTYPE svg PUBLIC "-//W3C//DTD SVG 1.1//EN" "http://www.w3.org/Graphics/SVG/1.1/DTD/svg11.dtd">
<svg xmlns="http://www.w3.org/2000/svg" xmlns:xlink="http://www.w3.org/1999/xlink" version="1.1" id="Capa_1" x="0px" y="0px" width="512px" height="512px" viewBox="0 0 418.115 418.115" style="enable-background:new 0 0 418.115 418.115;" xml:space="preserve">
<g>
	<g>
		<path d="M38.396,199.295c4.359,0,7.899,3.54,7.899,7.901v82.688c0,29.868,24.316,54.182,54.187,54.182h103.751    c16.29,0,27.538-5.067,31.681-14.243c3.702-8.247,0.874-18.266-7.951-28.188c-3.129-3.534-5.906-6.931-8.485-10.104    c-10.687-13.122-19.929-24.461-39.807-24.461h-48.482c-4.359,0-7.899-3.534-7.899-7.896v-51.976c0-4.362,3.54-7.901,7.899-7.901    h19.964c12.593,0,17.323-6.279,19.022-10.023c4.148-9.118-0.419-22.295-12.497-36.158l-35.487-40.677    c-9.615-11.022-22.468-17.088-36.183-17.088c-13.729,0-26.583,6.073-36.196,17.088l-35.488,40.677    C2.007,167.223-2.662,180.534,1.471,189.619c1.635,3.61,6.169,9.676,18.176,9.676H38.396z M23.258,160.911l35.487-40.677    c7.33-8.399,17.001-13.027,27.261-13.027c10.247,0,19.916,4.628,27.248,13.027l35.488,40.677    c11.075,12.695,11.801,20.896,10.648,23.463c-1.216,2.678-5.695,3.08-8.239,3.08h-33.789c-3.255,0-5.926,2.664-5.926,5.926v79.625    c0,3.26,2.671,5.926,5.926,5.926h62.307c14.244,0,20.414,7.556,30.613,20.094c2.702,3.295,5.568,6.819,8.823,10.485    c5.459,6.145,7.643,11.776,5.992,15.463c-2.011,4.469-10.004,7.251-20.865,7.251H100.481c-23.346,0-42.338-18.986-42.338-42.33    v-96.522c0-3.262-2.653-5.926-5.923-5.926H19.647c-2.297,0-6.312-0.355-7.394-2.731C11.102,182.17,11.898,173.92,23.258,160.911z" fill="#ed7d31"/>
		<path d="M247.943,228.836c-4.148,9.115,0.401,22.293,12.497,36.155l35.49,40.68c9.612,11.02,22.465,17.088,36.18,17.088    c13.716,0,26.568-6.073,36.181-17.088l35.485-40.68c12.319-14.106,17.001-27.421,12.873-36.505    c-1.636-3.611-6.186-9.679-18.195-9.679h-18.747c-4.362,0-7.901-3.54-7.901-7.896v-82.685c0-29.869-24.299-54.177-54.167-54.177    H213.87c-16.29,0-27.541,5.063-31.679,14.244c-3.689,8.247-0.879,18.258,7.947,28.188c3.151,3.532,5.908,6.926,8.5,10.103    c10.689,13.124,19.913,24.458,39.794,24.458h48.479c4.361,0,7.901,3.539,7.901,7.901v51.973c0,4.362-3.54,7.901-7.901,7.901    h-19.946C254.372,218.817,249.64,225.099,247.943,228.836z M300.744,139.192h-62.307c-14.244,0-20.398-7.559-30.613-20.096    c-2.684-3.295-5.553-6.82-8.823-10.484c-5.444-6.146-7.64-11.78-5.972-15.459c1.99-4.474,9.986-7.254,20.85-7.254h103.764    c23.344,0,42.32,18.984,42.32,42.328v96.517c0,3.261,2.671,5.921,5.926,5.921h32.57c2.3,0,6.332,0.361,7.414,2.737    c1.152,2.544,0.34,10.791-11.024,23.811l-35.485,40.675c-7.332,8.398-17.001,13.03-27.248,13.03    c-10.248,0-19.921-4.632-27.244-13.03l-35.489-40.675c-11.075-12.694-11.802-20.906-10.648-23.465    c1.219-2.677,5.682-3.083,8.241-3.083h33.769c3.275,0,5.926-2.66,5.926-5.921v-79.625    C306.67,141.855,304.02,139.192,300.744,139.192z" fill="#ed7d31"/>
	</g>
</g>
<g>
</g>
<g>
</g>
<g>
</g>
<g>
</g>
<g>
</g>
<g>
</g>
<g>
</g>
<g>
</g>
<g>
</g>
<g>
</g>
<g>
</g>
<g>
</g>
<g>
</g>
<g>
</g>
<g>
</g>
</svg>
